<?xml version="1.0" standalone="no"?>
<!DOCTYPE svg PUBLIC "-//W3C//DTD SVG 1.1//EN" "http://www.w3.org/Graphics/SVG/1.1/DTD/svg11.dtd" >
<svg>
<metadata>
Created by FontForge 20090914 at Thu Feb 23 22:30:49 2012
 By root
Generated by Fontographer 4.1
</metadata>
<defs>
<font id="Friends" horiz-adv-x="1500" >
  <font-face 
    font-family="Friends"
    font-weight="400"
    font-stretch="normal"
    units-per-em="2048"
    panose-1="2 11 6 3 5 3 2 2 2 4"
    ascent="1638"
    descent="-410"
    x-height="2296"
    cap-height="1983"
    bbox="-41 -340 3178.3 3198"
    underline-thickness="0"
    underline-position="0"
    unicode-range="U+0020-U+00A3"
  />
<missing-glyph horiz-adv-x="1024" 
d="M128 0v3198h768v-3198h-768zM256 128h512v2942h-512v-2942z" />
    <glyph glyph-name=".notdef" horiz-adv-x="1024" 
d="M128 0v3198h768v-3198h-768zM256 128h512v2942h-512v-2942z" />
    <glyph glyph-name=".null" horiz-adv-x="0" 
 />
    <glyph glyph-name="nonmarkingreturn" 
 />
    <glyph glyph-name="space" unicode=" " 
 />
    <glyph glyph-name="exclam" unicode="!" horiz-adv-x="1013" 
d="M752 1021q-24 0 -46.5 21.5t-25.5 45.5q30 143 82 235q38 12 77 16q38 3 77 -16q47 -56 41 -122q-10 -106 -77 -195q-24 -9 -49 -9q-39 0 -79 24z" />
    <glyph glyph-name="quotedbl" unicode="&#x22;" horiz-adv-x="1059" 
d="M758 1037q-27 23 -57 70q-22 33 -22 64q0 13 3 25q8 77 76 123q86 -7 195 -88q44 -17 44 -55q0 -10 -3 -21q-103 -103 -236 -118z" />
    <glyph glyph-name="numbersign" unicode="#" horiz-adv-x="1054" 
d="M780 1012q-114 18 -123 118q-9 109 82 200q22 3 45 3q88 0 190 -39q15 -38 15 -80q0 -44 -16 -93q-31 -96 -80 -150q-10 -6 -24 -6q-15 0 -35 7q-39 13 -54 40z" />
    <glyph glyph-name="dollar" unicode="$" horiz-adv-x="1102" 
d="M799 1001q-34 0 -60 27t-22 60q15 57 63 172q26 63 64 63q30 0 68 -41q146 -127 123 -163q-34 -52 -102.5 -85t-133.5 -33z" />
    <glyph glyph-name="percent" unicode="%" horiz-adv-x="1021" 
d="M773 1031l-24 16t-12 25q-44 20 -44 61q0 8 3 15q-4 50 47 133q43 69 64 69q4 0 7 -2q71 11 120 -124q39 -106 39 -193q-31 -27 -91 -23q-60 3 -109 23z" />
    <glyph glyph-name="ampersand" unicode="&#x26;" horiz-adv-x="875" 
d="M613 1110l-41 41q-3 23 -3 50q0 37 7 81q11 73 42 104q80 -17 92 -22q51 -19 67 -60q42 -18 42 -53q0 -13 -6 -29q-51 -106 -200 -112z" />
    <glyph glyph-name="hyphen" unicode="-" horiz-adv-x="1371" 
d="M404 1342q35 51 114 77l136 40q37 3 68 3q51 0 88 -8q55 -12 97 -5q48 8 130 -4q32 -5 56 -5q32 0 49 9q43 -7 76 -36l60 -61q28 -27 -2 -83q-25 -47 -69 -47q-10 0 -20 2q-48 -27 -128 -24q-77 0 -153 1q-93 0 -151 13q-48 10 -94 0q-63 -14 -154 24q-98 42 -103 104z
" />
    <glyph glyph-name="hyphen" unicode="&#x2010;" horiz-adv-x="1371" 
d="M404 1342q35 51 114 77l136 40q37 3 68 3q51 0 88 -8q55 -12 97 -5q48 8 130 -4q32 -5 56 -5q32 0 49 9q43 -7 76 -36l60 -61q28 -27 -2 -83q-25 -47 -69 -47q-10 0 -20 2q-48 -27 -128 -24q-77 0 -153 1q-93 0 -151 13q-48 10 -94 0q-63 -14 -154 24q-98 42 -103 104z
" />
    <glyph glyph-name="period" unicode="." horiz-adv-x="1036" 
d="M762 111q-113 16 -122 117q-10 109 82 200q22 3 45 3q87 0 190 -39q15 -38 15 -80q0 -44 -16 -93q-31 -96 -81 -149q-9 -6 -23 -6q-15 0 -35 7q-40 13 -55 40z" />
    <glyph glyph-name="slash" unicode="/" horiz-adv-x="1268" 
d="M344 13q-25 45 68 368q71 249 115 381q47 141 161.5 417.5t161.5 416.5q80 235 105 432l51 114q31 68 63 107q46 15 75 15q24 0 37 -10q21 -18 21 -31q0 -4 -1 -6q-4 -130 -74 -319l-115 -311q-55 -287 -201 -585q-16 -45 -115 -373q-71 -236 -137 -358q-29 -31 -62 -92
l-54 -98.5t-54 -74.5q-27 -26 -45 7z" />
    <glyph glyph-name="zero" unicode="0" horiz-adv-x="1750" 
d="M213 149q-93 87 -138 342q-16 93 -11 193q3 64 31 238q1 6 23 206q37 350 129 659q51 171 130 289q60 39 113 39q31 -14 57 -14q43 0 112 53q53 7 112 59q69 59 128 88q91 44 194 48q101 3 206 -48q67 -32 170 -237q101 -201 116 -369q23 -96 53 -205q19 -72 19 -135
q0 -32 -5 -61q2 -33 2 -72q0 -135 -23 -232q2 -37 2 -80q0 -72 -4 -162q-7 -147 -49 -228q-25 -68 -62 -113q-17 -21 -91 -92q-36 -17 -94 -74q-47 -48 -137 -73q2 -17 -64 -41l-84 -27q-89 -11 -266 -30q-80 5 -241 20q-32 8 -55 8q-13 0 -30 -6t-27 -6q-23 0 -57 14
q-17 -11 -48 -11q-12 0 -26 2q-51 6 -85 58zM331 511q74 -51 116 -66q47 -17 135 -22q47 -17 84 -17q33 0 121 26q20 -6 44 -6q39 0 89 16q80 24 138 39q35 23 88 42q46 16 65 33q30 27 52 92q123 109 163 298q33 157 36 357q4 43 2 114q-3 62 -37 121q-25 125 -89 373
q-27 81 -68 126q-26 29 -64 29q-21 0 -46 -9q-45 -7 -102 -33l-97 -46q-45 -32 -87 -45l-92 -23l-236 -98q-28 -29 -57 -86q-38 -71 -51 -90q-17 -69 -62 -182q-50 -127 -66 -180q-42 -139 -45 -251l-6 -229q4 -83 9 -165q14 -125 63 -118z" />
    <glyph glyph-name="one" unicode="1" horiz-adv-x="687" 
d="M283 118q-42 50 -44 226q-2 101 27 795q9 229 -13 336q-38 185 -30 325q1 21 1 41q0 138 -53 269q-8 103 -47 238q-15 51 -15 89q0 64 41 93q180 18 171 18q60 0 116 -34q42 -57 57 -147q4 -29 4 -58q0 -58 -20 -112q17 -54 17 -108q0 -12 -2 -36.5t-2 -37.5
q0 -53 18 -105q-3 -82 40 -237q40 -143 26 -244q-17 -129 4 -370l40 -374q21 -226 29 -407q1 -33 1 -60q0 -126 -28 -146q-12 -41 -100 -41q-20 0 -44 3q-133 11 -194 84z" />
    <glyph glyph-name="two" unicode="2" horiz-adv-x="2745" 
d="M2028 122q-220 0 -430 20l-637 152q-212 54 -336 93q-236 73 -312 129q-92 49 -82 153q-19 65 -19 123q0 60 19 113q-2 8 -2 16q0 55 84 107q59 23 160 37q119 17 162 29q125 60 282 98q79 33 200 97q96 5 204 72q96 13 149 117q39 26 39 56t-39 62q-83 42 -279 40
q-279 -12 -837 -33q-199 -6 -287 29q-39 11 -46 49q-3 14 -3 27q0 22 8 42q-2 12 -2 25q0 35 16 77q20 53 73 92q96 72 200 93q76 15 162 11q78 -5 155 -17q607 -8 1249 -158q50 -24 63 -32q31 -18 55 -45q27 -74 27 -146t-27 -141q-12 -42 -38 -86q-31 -53 -80 -78
q-90 -87 -317 -164q-79 -45 -261 -97q-111 -72 -251 -118q-57 -26 -184 -71q-56 0 -118 -27q-74 -33 -77 -81q-4 -56 247 -146q100 -36 203 -62q58 -15 159 -32q182 -36 292 -48q65 -7 129 -7q90 0 178 14q318 -33 349 -38q199 -29 338 -85q49 -47 42 -115q-8 -69 -42 -126
q-6 -21 -66 -21q-61 0 -159 5q-127 7 -158 8q-90 3 -155 -12z" />
    <glyph glyph-name="three" unicode="3" horiz-adv-x="3341" 
d="M193 60q-16 -9 -33 -9q-49 0 -105 75q-8 50 -9 100q-2 49 45 100q20 31 356 87q303 50 576 72q37 9 100 41t99 41q57 14 142 75q97 71 140 89q199 84 435 117q50 29 50 63q0 60 -111 122q-112 49 -333 155q-87 44 -139 78q-100 64 -107 105q-5 10 -5 24q0 38 39 106
q53 92 130 146q42 45 154 49q41 1 79 1q66 0 125 -4q173 43 262 102q18 12 220 128l107 57q62 35 98 71q53 30 97 78q31 33 31 62q0 12 -6 24q-87 49 -268 47q-148 -2 -403 -17q-290 -17 -403 -20q-204 -6 -334 36q-53 33 -53 81q0 17 7 37q7 123 128 200q62 62 159 77
q229 -8 358 -52q198 -35 553 -36q426 0 656 -66q118 -12 118 -87q26 -62 30 -140q6 -114 -108 -239q-52 -57 -117 -102l-104 -31q-58 -21 -91 -56q-105 -86 -266 -139q-125 -41 -261 -128q-163 -104 -338 -97q-82 -7 -82 -46q0 -13 10 -31q23 -53 158 -75q169 -28 206 -48
q190 -105 251 -147q147 -103 194 -206q5 -18 5 -37q0 -33 -16 -68q-25 -54 -76 -94q-102 -125 -386 -225q-276 -98 -489 -98q-384 -176 -629 -245q-298 -85 -666 -103q-20 7 -40 7q-16 0 -45.5 -9t-45.5 -9q-24 0 -49 11z" />
    <glyph glyph-name="four" unicode="4" horiz-adv-x="2345" 
d="M971 71q-34 13 -34 98q0 36 6 84q20 162 60 355l75 358q23 107 23 155q0 27 -7 36q-15 7 -39 7q-31 0 -74 -11q-79 -19 -133 -37q-113 -19 -244 -19q-130 0 -278 19q-73 0 -149 20q-91 23 -133 62q-2 3 -2 9q0 23 40 93q49 86 111 113q51 53 97 82q33 6 58.5 49t59.5 53
q64 43 286 316q101 124 149 176q96 102 174 148q41 24 115 84.5t115 84.5q136 53 282 77l155 -12q102 -15 126 -65q9 -12 9 -30q0 -25 -16 -63q-53 -124 -197 -309l-113 -141q-27 -69 -60 -250q-14 -75 -14 -125q0 -71 28 -91q29 -36 100 -36q60 0 148 25q190 54 320 52
q118 -2 200 -123q8 -21 8 -43q0 -32 -18 -64q-27 -49 -67 -92q-24 -26 -87 -26q-41 0 -98 12q-146 28 -260 55q-239 8 -364 -41q-44 -27 -94 -514q-24 -235 -33 -298q-30 -225 -67 -274q-19 -5 -40 -5q-26 0 -54 8q-52 15 -70 38zM730 1438q103 -19 246 -40q37 -6 65 -6
q82 0 94 46q104 135 248 490q58 142 73 230q2 13 2 23q0 25 -15 25q-17 0 -52 -30q-149 -66 -316 -197q-70 -56 -283 -244q-59 -71 -78 -96q-43 -56 -66 -104q-17 -34 -17 -60q0 -12 4 -22q12 -31 95 -15z" />
    <glyph glyph-name="five" unicode="5" horiz-adv-x="1566" 
d="M366 21q-5 4 -51 20q-30 10 -26 41q-29 25 -37 76q-1 10 -4 88q-3 71 22 126q32 69 96 69q23 16 49 16q17 0 37 -7q31 -12 55 -12q12 0 23 3q81 35 174.5 148t163.5 148q99 36 143 113q38 30 33 119q-6 88 -33 158q-69 15 -170 25q-96 9 -189 -25q-51 -17 -159 -56
q-64 -24 -121 -24q-22 0 -42 3q-12 -5 -25 -5q-46 0 -113 53q-88 68 -103 141q-3 5 -3 17q0 30 22 100q63 203 176 452q51 113 82 163q46 120 123 159q138 99 301 205q148 95 298 159q134 57 202 57q44 0 84 -16q48 -38 41 -118q0 -86 -123 -200q-40 -47 -278 -138
q-171 -65 -315 -108q-143 -68 -175 -133q-51 -105 -90 -204q-32 -80 -32 -133q0 -30 10 -52q24 -42 133 -38q40 1 494 50q41 4 74 4q64 0 98 -16q135 -36 240 -210q20 -53 20 -101q0 -47 -20 -88q-35 -93 -103 -184l-137 -180q-124 -150 -282 -286q-92 -106 -200 -200
q-212 -186 -363 -179z" />
    <glyph glyph-name="six" unicode="6" horiz-adv-x="1678" 
d="M437 65q-42 -16 -91 -14t-83 14q-35 3 -58 13q-45 21 -50 23q-61 21 -61 77q-27 18 -28 53q-2 44 2 69q2 68 27 156q58 209 175 472q56 127 106 217q24 70 92 200q55 91 158 276l138 199q101 136 159 160q16 5 29 5q39 0 47 -40q9 -49 -86 -226q-57 -107 -128 -208
l-148 -207q-82 -111 -82 -200q38 -36 92 -36q32 0 134 37q87 32 142 40q100 14 179 -1q52 -10 149 -55q124 -58 205 -121q93 -75 143 -186q-29 -297 -164 -482q-104 -69 -224 -102l-247 -56q-301 -71 -527 -77zM616 316q417 -10 620 66q125 99 158 200q21 42 21 83
q0 42 -21 81q-68 93 -199 159q-103 30 -227 30q-34 0 -70 -2q-166 -11 -323 -18q-119 -54 -174 -195q-19 -49 -82 -224q-23 -64 -23 -104q0 -35 18 -51q141 -37 209 -37q46 0 93 12z" />
    <glyph glyph-name="seven" unicode="7" horiz-adv-x="1955" 
d="M924 77q-18 14 -1 182q34 349 121 836q40 222 69 344q0 82 106 426q39 126 69 236q22 83 22 128q0 14 -2 24q-23 29 -109 44q-64 8 -127 17q-146 7 -291 11q-123 3 -318 -11q-71 -5 -191 5q-106 9 -198 36q-23 39 -23 82q0 51 33 108q42 38 135 38q18 0 37 -1
q122 -9 222 -27q37 20 73 20q17 0 50 -6.5t50 -6.5q19 0 37 3q447 16 835 -31q106 -13 181 -7q101 8 152 -49q6 -101 -87 -194q-12 -22 -76 -100q-48 -59 -57 -110q-32 -31 -54 -92l-34 -103q-12 -64 -51 -153l-66 -149q-15 -197 -62 -282q-22 -209 -123 -659
q-60 -268 -70 -306q-49 -192 -99 -294q-20 -8 -41 -8q-48 0 -112 49z" />
    <glyph glyph-name="eight" unicode="8" horiz-adv-x="1971" 
d="M259 89q-21 -6 -42 -6q-59 0 -122 47q-37 42 -38 100q0 11 2 23q0 180 62 362q66 191 179 319q29 43 130 80q93 34 110 79q-89 24 -138 276q-35 110 -25 164q46 253 240 374q222 96 499 159q204 47 386 47q63 0 124 -6q195 -63 241 -200q4 -26 4 -57q0 -52 -11 -120
q-41 -235 -155 -421q-58 -94 -125 -134q-18 -42 -100 -64t-95 -59q63 -45 107 -120q47 -80 47 -152q25 -83 0 -163q-63 -202 -241 -364q-76 -84 -406 -144q-150 -27 -318 -35q-43 -2 -85 -2q-121 0 -230 17zM935 1262v0q365 -11 481 77q108 83 194 236q62 112 62 189
q0 31 -10 56q-90 56 -219 56q-21 0 -43 -1q-159 -11 -312 -14q-189 -25 -348 -118q-118 -40 -123 -164q-3 -73 31 -166q30 -86 92 -121q94 -31 168 -31q14 0 27 1zM377 330q207 -31 447 -25q240 5 351 71q165 124 210 317q0 65 -41 118q-89 115 -245 123q-285 14 -640 -118
q-79 -51 -141 -178q-59 -122 -59 -221q23 -87 118 -87z" />
    <glyph glyph-name="nine" unicode="9" horiz-adv-x="2020" 
d="M1172 175q-16 27 -16 114q0 50 6 122l85 892q12 137 12 231q0 59 -5 100q0 126 -133 261q-39 57 -298 125q-283 74 -485 172q-95 46 -131 96q-31 44 -95 150q-16 27 -17 108q-2 186 65 355q36 92 90 126q129 81 219 123q56 25 273 15q131 -5 390 -20q191 -17 398 -62
q8 -3 17 -3q25 0 56 20q148 91 195 91q36 0 65 -36q28 -24 28 -68q0 -52 -38 -133q-55 -117 -55 -241q0 -35 4 -70q-56 -188 -92 -471q-52 -325 -144 -978q-20 -53 -76 -474l-41 -303q-19 -137 -31 -186q-25 -104 -32 -122q-29 -70 -86 -77q-103 28 -128 143zM573 2300
l134 -44q61 -21 112 -28l242 -67q65 -19 104 -19q45 0 53 25q19 41 28 99q13 80 18 100q37 138 60 243q11 48 11 86q0 69 -35 106q-164 72 -410 93q-142 26 -160 33q-4 1 -10 1q-31 0 -147 -29q-61 -8 -120 -111l-80 -161q-12 -42 -16 -71q-4 -28 11 -67q34 -89 42 -89
q1 0 1.5 1.5t1.5 1.5q7 0 27 -47q98 -56 133 -56z" />
    <glyph glyph-name="colon" unicode=":" horiz-adv-x="966" 
d="M655 1561q-34 0 -60 27t-22 60q15 57 63 172q26 63 63 63q31 0 68 -41q46 -39 92 -88q35 -37 35 -61q0 -8 -4 -15q-36 -52 -103 -84.5t-132 -32.5zM696 470q-114 16 -123 118q-9 110 82 199q26 3 52 3q75 0 183 -38q15 -38 15 -81q0 -44 -16 -92q-31 -96 -81 -150
q-9 -6 -23 -6q-15 0 -35 7q-39 13 -54 40z" />
    <glyph glyph-name="semicolon" unicode=";" horiz-adv-x="1054" 
d="M753 1685q-34 0 -60 27t-22 60q15 57 63 172q26 63 64 63q30 0 68 -41q45 -39 92 -88q35 -37 35 -62q0 -7 -4 -14q-36 -52 -103 -84.5t-133 -32.5zM743 563q-45 7 -55 71q-4 51 -7 103q-4 44 37 77l76 57q28 8 51 8q27 0 46 -11q36 -21 98 -43q0 -111 -83 -265
q-69 -129 -163 -232q-2 -1 -4 -1q-7 0 -7 23q0 28 9 84.5t9 85.5q0 31 -7 43z" />
    <glyph glyph-name="less" unicode="&#x3c;" horiz-adv-x="1148" 
d="M1094 1023v0q-7 -10 -30 -10q-25 0 -70 13q-37 19 -114 53q-10 3 -171 79q-45 21 -67 43q-35 12 -45 34q-9 19 13 23l38 2t53 4l132 -69q51 -23 141 -67l66 -48q42 -31 54 -57zM1091 1501q-12 -28 -53 -59l-66 -47q-49 -19 -142 -66q-56 -23 -130 -65q-79 -7 -91 -7
q-15 0 -15 14q0 5 2 12q8 26 43 39q18 17 161 88q45 17 129 60q32 21 91 35q26 5 43 5q21 0 28 -9z" />
    <glyph glyph-name="equal" unicode="=" horiz-adv-x="1379" 
d="M404 1397q37 30 119 45l131 22q33 1 62 1q55 0 94 -4q54 -7 97 -3q47 5 130 -2q32 -3 55 -3q33 0 50 5q45 -4 136 -55q28 -16 -2 -48q-25 -26 -69 -26q-9 0 -20 1q-48 -15 -128 -13q-105 -2 -304 7q-49 6 -94 0q-53 -7 -144 12q-107 21 -113 61zM412 1207q36 30 119 45
l131 22q33 1 62 1q55 0 94 -4q54 -7 97 -3q47 5 130 -2q32 -3 55 -3q33 0 50 5q43 -4 136 -55q28 -15 -1 -47q-25 -27 -70 -27q-9 0 -20 1q-48 -15 -127 -13q-104 -2 -305 7q-47 5 -94 0q-54 -6 -143 12q-107 22 -114 61z" />
    <glyph glyph-name="greater" unicode="&#x3e;" horiz-adv-x="1141" 
d="M581 1023q11 26 53 58l67 47q49 20 141 67q54 22 132 69q56 -5 94 -7q12 -1 12 -10q0 -29 -47 -46q-16 -15 -161 -88q-45 -17 -129 -60q-31 -20 -91 -34q-26 -6 -42 -6q-22 0 -29 10zM583 1501q7 9 28 9q17 0 43 -5q61 -15 92 -35l129 -60l93 -45q44 -22 67 -43
q35 -13 43 -39q2 -7 2 -13q0 -13 -14 -13t-91 7q-18 16 -63 34q-51 21 -67 31q-48 20 -142 66l-67 47q-41 31 -53 59z" />
    <glyph glyph-name="A" unicode="A" horiz-adv-x="1512" 
d="M114 468q11 93 95 333l122 335l181 506l166 469q19 50 64 50q19 0 43 -9q169 -202 266 -425l185 -424l93 -8.5t81 -38.5q-4 -29 -30 -83t-47 -70l77 -287l21 -145q2 -17 2 -32q0 -48 -23 -74q-42 -30 -76 -30q-20 0 -37 10q-34 3 -65 57q-24 43 -32 86l-108 364l-240 -21
l-374 -36l-90 -327q-73 -261 -99 -282q-24 -24 -60 -25q-115 -5 -115 107zM539 1246l466 41l-240 568z" />
    <glyph glyph-name="B" unicode="B" horiz-adv-x="1727" 
d="M20 70q-2 324 55 948q54 599 258 1249q37 12 69 12q50 0 88 -30q60 -48 145 -44q34 -16 89 -16q24 0 52 3l411 67q69 11 127 11q31 0 58 -3q107 -27 160 -100q36 -52 36 -95q0 -19 -7 -36q0 -268 -92 -358q-58 -96 -130 -172q-58 -61 -156 -110l-185 -92l-143 -31
q65 -21 129 -21q42 0 83 9q102 21 162 7q245 -59 343 -153q81 -136 66 -292q6 -265 -97 -441q-62 -77 -110 -112q-42 -31 -110 -51q-251 -74 -436 -105q-264 -45 -418 -54t-278 -34q-51 -11 -86 -11q-83 0 -83 55zM553 1509v0q53 -26 189 -26q16 -2 32 -2q107 0 234 79
q49 14 85 52q61 64 69 71q149 159 149 307q-71 76 -282 87q-66 -3 -136 -47q-115 -71 -125 -76q-69 -42 -131 -116q-55 -66 -84 -165q-16 -32 -20 -69q-4 -38 20 -95zM681 336q152 -12 374 41q74 18 121 37l135 55q44 18 58 53l18 86q8 65 6 156q-2 90 -52 125
q-58 50 -108 88q-58 44 -122 50l-589 52q-37 12 -65 12q-60 0 -79 -54q-30 -84 -40 -173l-41 -364q15 -57 87 -97q60 -34 129 -45q48 -8 168 -22z" />
    <glyph glyph-name="C" unicode="C" horiz-adv-x="1708" 
d="M541 598l-71 36l-113 72q-74 123 -70 321q7 435 312 738q152 151 377 180q156 0 242 -15q104 -19 230 -77q10 -34 10 -58q0 -60 -59 -65q-48 -4 -115 -4q-47 0 -103 2q-194 7 -312 -30q-153 -48 -246 -183q-79 -115 -115 -219q-28 -80 -49 -206q-13 -75 8 -125
q23 -57 54 -111q61 -61 123 -69q77 -11 138 -12q131 -2 327 11q169 11 200 50q50 31 80 121q25 73 89 84q99 -3 107 -9l42 -63q-30 -123 -98 -189q-71 -114 -179 -149q-225 -73 -414 -75q-195 -2 -395 44z" />
    <glyph glyph-name="D" unicode="D" horiz-adv-x="1731" 
d="M-23 489q-5 20 -5 38q0 22 8 42q14 34 18 58l50 153q55 115 118 331q70 240 66 350q11 105 -11 299q-5 35 -5 63q0 99 52 109q24 5 46 5q68 0 115 -55.5t72 -55.5q9 0 18 4q209 -17 624 -72q113 -20 168.5 -60l128.5 -93q39 -43 69 -72q34 -34 49 -72q44 -64 56 -143
q33 -85 22 -144q-13 -67 -32 -132q-25 -64 -43 -89q-10 -13 -64 -70q-47 -49 -67.5 -60l-71.5 -37l-91 -49q-54 -27 -98 -33q-43 -23 -250 -68q-202 -44 -242 -40q-138 -23 -414 -77q-58 18 -98 -5l-35 -20q-16 -12 -32 -43q-9 -18 -24 -18q-11 0 -26 10q-16 -7 -30 -7
q-47 0 -47 36q0 8 6 17zM401 740l236 46l240 41l200 41q32 5 93 16q44 9 101 40q73 4 185 133q42 70 42 145q0 47 -17 96q-37 108 -143 176q-95 61 -220 69l-645 41v-51q0 -104 -92 -409l-70 -222q-28 -90 -89 -193z" />
    <glyph glyph-name="E" unicode="E" horiz-adv-x="1604" 
d="M317 543q-40 50 -40 131q0 25 4 53q6 21 34 163q20 100 48 159q-6 51 -21 154q15 57 56 89q37 29 52 85q16 63 86 251q63 173 109 189q52 18 110 23q33 3 99 8l292 10l118 -20q77 -32 77 -77q-10 -56 -82 -56l-138 -26l-215 -36q-95 0 -118 -61q-67 -98 -67 -215
q27 -35 83 -32q71 4 118.5 11.5t221.5 39.5q108 19 228 17q63 -1 74 -3q48 -5 64 -28q10 -21 10 -39q0 -15 -7 -28q-15 -28 -34 -35q-40 -23 -82 -23q-23 0 -46 7l-201 -25q-33 -5 -147 -26q-92 -17 -127 -28q-50 -17 -134 -28q-29 0 -50 -13.5l-42 -27.5q-26 -32 -38 -66
q-15 -46 -24 -62q-10 -42 -19 -84q-12 -50 -12 -85q42 -66 93 -57q35 4 112 16l200 41l141 31q48 9 146 30q49 11 69 7q89 -21 59 -104q-31 -43 -87 -56q-66 -39 -124 -53q-38 -9 -112 -29q-51 -18 -136 -45q-26 -8 -120 -22l-133 -20l-128 -21q-91 -15 -114 -15
q-52 0 -106 31z" />
    <glyph glyph-name="F" unicode="F" horiz-adv-x="1685" 
d="M278 69q-6 4 -43 14q-18 5 -24 43q-10 9 -10 81q0 31 2 73q13 305 68 751q26 216 53 380q-31 38 -31 80v104q9 53 43 123l59 118q4 8 144 377q87 227 133 227q19 14 42 14q13 0 28 -4q39 -14 48 -26q199 64 394 57q50 12 100 12q79 0 197 -33q10 1 18 1q49 0 43 -42
q6 -32 -46 -61q-48 -16 -125 -19q-114 -6 -126 -7q-84 4 -205 -25q-96 -8 -158 -52q-64 -21 -72 -92l-138 -286l-31 -139q111 -46 251 -47q170 -2 302 22q87 6 153 28q59 20 136 20q21 0 44 -2q58 -19 66 -67q4 -9 4 -17q0 -19 -21 -31q-29 -18 -59 -18l-103 -26
q-61 -16 -166 -40q-52 -8 -177 -32q-93 -19 -136 -19q-63 -1 -105 -16l-97 -21q-98 -22 -179 -72q-69 -17 -123 -640l-30 -348q-30 -291 -62 -312z" />
    <glyph glyph-name="G" unicode="G" horiz-adv-x="1689" 
d="M305 546q-60 8 -107 60q-45 49 -89 103q-15 65 -21 108q-6 40 6 143q47 420 177 594q197 265 417 384q117 46 247 62q35 4 68 4q84 0 146 -30q14 -12 96 -16q71 -4 71 -48q0 -6 -1 -13l-5 -56q-43 -15 -101 -15q-45 0 -132 15.5t-131 15.5q-71 0 -131 -21
q-69 11 -199 -125q-84 -87 -159 -194q-94 -135 -154 -272q-44 -98 -44 -162q0 -26 7 -46l-10 -82l10 -87l34 -102l98 -62l294 -36l344 41l157 82l122 67l69 92l-5 133l-176 16q-16 8 -59 46q5 21 24 56q133 -11 397 -56q38 -192 38 -367q0 -124 -23 -238q-41 -8 -70 -8
q-75 0 -69 51q2 16 2 32q0 50 -20 94q-155 -116 -387 -163q-174 -35 -364 -27q-221 8 -367 27z" />
    <glyph glyph-name="H" unicode="H" horiz-adv-x="1627" 
d="M218 388q-24 38 -24 78q0 13 3 26q5 35 21 100q94 296 147 538q59 269 94 507q4 80 10 99q15 51 67 65q126 -6 126 -66q0 -8 -4 -16q-12 -123 -36 -285q-16 -101 -16 -155q0 -32 6 -47q52 -53 174 -46q209 13 410 113q40 15 61 56l77 482q11 67 18 81q16 32 69 42
q18 1 33 1q89 0 89 -57q0 -11 -4 -21l-29 -317q-17 -182 -32 -231l-36 -261q-17 -111 -52 -366q-29 -215 -56 -238q-51 -43 -120 -43q-70 0 -115 43q-14 2 -14 30q0 27 13 78q25 105 37 178q0 65 30 179q45 175 46 180l-82 -67l-122 -36q-64 -19 -116 -19q-37 0 -115 -1
q-72 -2 -140 10q-20 3 -36 3q-48 0 -64 -29q-29 -219 -45 -314q-39 -233 -73 -290q-41 -25 -85 -25q-56 0 -115 41z" />
    <glyph glyph-name="I" unicode="I" horiz-adv-x="1101" 
d="M574 651q5 81 20 128q98 295 151 533q51 234 89 507q8 61 27 101q15 32 50 63q68 -9 86 -17q40 -19 37 -70q6 -36 6 -80q0 -64 -13 -144q-22 -135 -49 -273q-30 -80 -67 -302q-3 -20 -32 -320q-23 -243 -45 -284q-31 -35 -84 -35q-20 0 -42 5q-143 29 -134 188z" />
    <glyph glyph-name="J" unicode="J" horiz-adv-x="2103" 
d="M705 45q-41 -12 -81 -12q-48 0 -196 43q-161 47 -250 158l-67 128q-27 92 -32 153q-1 10 -4 160l18 121q10 69 95 83q42 7 84 -5.5t59 -55.5q15 -15 16 -41q1 -38 5 -51q0 -118 41 -246q17 -84 82 -118q79 -42 159 -56q108 -20 168 -15q116 -10 231 20q47 4 81 21
q27 14 77 56q39 27 65 81q13 27 38 103q35 93 89 273q24 92 69 296l221 1249l42 123q29 67 80 97q61 54 114 54q87 0 92 -85q2 -48 -21 -102q-19 -96 -96 -228q-70 -122 -83 -228q-36 -99 -29 -239q6 -116 -28 -227q-108 -731 -220 -1147l-19 -124q-6 -40 -83 -147
q-28 -50 -87 -87q-39 -4 -68 -21q-13 -8 -28 -8q-21 0 -48 14q-54 7 -184 20q-47 5 -99 5q-93 0 -203 -15z" />
    <glyph glyph-name="K" unicode="K" horiz-adv-x="1921" 
d="M140 277q-28 -11 -107 30q-42 22 -50 98q9 120 40 363q27 152 79 337q23 82 73 206l88 220l77 200q7 7 82 123l164 281q2 14 2 27q0 29 -10 50q-7 12 -7 27q0 24 15 55q0 96 77 118q34 18 71 18q26 0 54 -9q67 -21 79 -86q16 -15 16 -42q0 -29 -18 -70q-28 -68 -206 -388
q-58 -105 -73 -181q0 -89 -54 -195q-25 -49 -25 -82q0 -37 33 -51q20 -14 57 -14q26 0 60 7q179 35 312 126q53 37 53 63q0 5 -1 8q138 153 328 215q65 11 122 8q56 -4 118 -49q37 -8 37 -26q0 -20 -51 -54q-97 -63 -244 -142l-250 -131q-97 -52 -97 -77q0 -7 6 -11
q7 -39 234 -66q202 -24 488 -92q70 -17 118 -82q0 -84 -87 -118q-72 -28 -174 -28q-101 0 -220 28q-102 0 -347 82q-213 70 -416 159q-12 -4 -25 -4q-14 0 -35.5 7t-36.5 7q-28 0 -67 -10q-20 -81 -72.5 -143.5t-70.5 -153.5q-11 -58 -9 -74q3 -24 -27 -116q-23 -39 -23 -89
q0 -14 3.5 -42t3.5 -42q0 -45 -15 -83q-8 -73 -72 -112z" />
    <glyph glyph-name="L" unicode="L" horiz-adv-x="1789" 
d="M207 129q-13 8 -97 14q-66 6 -103 58q-40 21 -40 77q-8 19 -8 76q0 26 2 60q5 108 46 227q7 99 79 225q55 95 55 167q0 23 -6 43q24 179 128 390q26 61 80 161q42 57 69 100q2 57 86 124q79 63 72 157q-21 33 -21 87q0 38 21 77q0 82 87 123q28 4 52 4q115 0 148 -91
q20 -19 20 -53q0 -28 -14 -66q-30 -84 -82 -184l-105 -199q-53 -99 -60 -164q4 -66 -50 -156q-22 -37 -88 -171q-94 -190 -105 -339q-13 -162 -43 -312q-17 -43 -36 -122q179 -31 276 -41q50 -16 106 -16q38 0 113 14t114 14q55 0 108 -12q41 -30 110 -30q47 0 107 14
q96 22 198 22q53 0 107 -6q146 -41 164 -123q12 -57 -28 -106q-37 -45 -95 -58q-254 -20 -607 -23q-353 -4 -760 38z" />
    <glyph glyph-name="M" unicode="M" horiz-adv-x="2327" 
d="M156 129q-21 20 -46 61q-47 54 -47 129q0 32 11 56l77 373l209 620q6 17 39 96q19 47 38 109q24 44 82 123l74 153q36 75 54 123q13 33 20 83q9 58 16 81q-9 83 77 123q30 23 58 23q46 0 85 -62q62 -100 97 -161q91 -75 91 -133q0 -15 -4 -31q9 -20 9 -51q0 -34 -10 -81
l-106 -397q-24 -94 -15 -152q5 -29 25 -29q27 0 84 53q135 125 471 529q119 143 167 174q54 77 89 105q44 35 126 54q101 -4 141 -21q59 -23 100 -97q3 1 6 1q27 0 27 -103q0 -57 -8 -143q-51 -565 -203 -1215q-68 -288 -104 -316q-23 -23 -67 -23q-16 0 -35 4
q-71 11 -97 65l134 743q41 223 61 318q52 252 81 295q4 12 4 23q0 39 -54 58q-70 24 -104 47q-114 -66 -271 -234q-64 -69 -237 -275q-160 -191 -179 -211q-149 -164 -198 -160q-20 -8 -49 -8t-67 8q-77 15 -84 77q-34 23 -34 92q0 57 23 144q50 193 47 486
q-31 -142 -121 -374q-112 -284 -139 -373q-66 -211 -63 -380q8 -10 8 -24t-7 -31q-14 -36 -21 -78q0 -46 7 -112q1 -11 1 -20q0 -48 -29 -57q-12 -66 -97 -87q-35 -8 -65 -8q-44 0 -78 18z" />
    <glyph glyph-name="N" unicode="N" horiz-adv-x="2096" 
d="M184 277q-16 1 -18 106q-4 227 29 523q9 86 86 431q33 148 102 179q15 2 30 2q74 0 136 -46q74 -56 121 -109q48 -20 264 -292q105 -134 121 -152q98 -117 132 -125q194 -45 200 210q11 57 130 323q50 113 67 155q46 113 48 157q7 47 66 138q55 81 52 144q-7 23 -7 50
t7 60q15 64 46 100q20 4 38 4q102 0 121 -92q16 -16 16 -49q0 -50 -39 -137q-65 -145 -95 -264q-79 -220 -251 -589q-23 -35 -37 -133l-28 -202q-16 -109 -25 -150q-27 -118 -63 -119q-16 -7 -35 -7q-61 0 -154 65q-186 126 -499 422q-113 106 -157 124q-57 0 -118 -87
q-12 -26 -37 -149q-21 -101 -50 -127q-36 -18 -36 -74q0 -39 19 -98q27 -89 27 -141q0 -32 -10 -51q-12 -50 -88 -61q-11 -2 -21 -2q-61 0 -90 63z" />
    <glyph glyph-name="O" unicode="O" horiz-adv-x="1859" 
d="M353 637q-61 30 -90 79q-34 58 -48 100q-16 47 -10 101q4 47 31 124q58 252 88 330q67 176 193 274q60 21 113 21q32 -8 59 -8q41 0 110 28q54 3 113 30q69 32 128 47q90 23 193 25q101 2 206 -25q66 -17 170 -125q101 -105 117 -193q38 -87 38 -154q0 -30 -8 -55
q1 -13 1 -26q0 -62 -31 -133q3 -57 -43 -121q-41 -58 -96 -89q-21 -31 -74 -47l-89 -20q-40 -11 -92 -20q-31 -6 -82 -6q-24 0 -52 1q1 -6 -65 -10q-85 -5 -93 -6q-33 -16 -98 -22q-71 -7 -102 -19q-66 -51 -149 -66q-31 -31 -148 -31q-24 -8 -87 -15q-11 -2 -20 -2
q-50 0 -83 33zM553 852q43 -16 89 -16q65 0 136 31q122 53 195 46q62 -6 93 5q36 12 86 36q79 28 129 28q31 0 66 -8q124 15 191 96q67 78 67 202q0 58 -38 92q-51 91 -107 172q-43 60 -131 60q-29 0 -64 -7q-12 -1 -164 -36q-51 -20 -91 -21q-45 -2 -93 -10q-76 0 -231 -15
q-44 -8 -62 -36q-27 -43 -45 -56q-31 -62 -66 -101q-28 -31 -62 -89q-43 -73 -45 -131q-3 -63 -6 -120q8 -49 55.5 -87t97.5 -35z" />
    <glyph glyph-name="P" unicode="P" horiz-adv-x="1789" 
d="M25 -170q-45 47 -45 87q-8 92 24 335l51 344l58 412q26 188 25 219q-27 42 -54 74q-16 19 -16 41q0 16 8 33q0 51 32 65q46 21 65 53q38 64 65 220q2 11 34 236q20 149 34 205q34 144 88 174q17 5 31 5q31 0 50 -22q27 -33 62 -60q45 -12 100 -10q54 1 105 40
q57 27 114 38l142 14q119 12 125 12q5 0 100 -20q35 -8 143 -8q182 -45 308 -286q5 -19 30 -221v-59q0 -28 -15 -74q-34 -104 -66.5 -151t-106 -104t-175.5 -57q-78 -24 -152 -25q-32 0 -63 5q-62 -16 -93 -16q-23 0 -51 5q-39 -19 -86 -18.5t-108 -6.5q-61 -19 -169 -26
q-98 -17 -127 -25q-64 -17 -119 -52q-50 1 -130 -672q-43 -364 -44 -370q-41 -314 -66 -324q-27 -17 -62 -17q-21 0 -46 7zM440 1452q21 -26 67 -26q36 0 87 17q87 27 141 27q18 0 32 -3q77 15 129 27q59 13 117 4q82 -13 126 12q39 20 88 20q13 0 27 -1q161 7 235 107
q39 73 54 119q8 26 8 54q0 20 -5 42q4 26 4 55q0 26 -3 55q-7 60 -53 80q-103 27 -276 87l-133 20l-184 -30q-58 -19 -139 -36q-22 6 -44 6q-77 0 -150 -68q-37 -43 -103 -143q-46 -170 -46 -266q0 -17 -4 -50.5t-4 -49.5q0 -34 29 -59z" />
    <glyph glyph-name="Q" unicode="Q" horiz-adv-x="1701" 
d="M1531 280q-59 14 -138 107q-43 25 -123 113q-66 52 -66 82q-25 29 -57 118q-27 77 -56 92q-14 10 -32 10q-24 0 -54 -15l-93 -51l-59 -36q-16 -8 -79 -10q-53 -47 -200 -47q-39 -11 -102 -12q-95 -2 -103 -3q-190 -16 -281 123q-24 50 -24 120t24 162q0 184 50 341
q66 204 195 263q11 -2 26 -2q21 0 48 4q34 4 87 -5q58 -9 85 -7q35 1 82 25l111 60q65 33 119 43q84 15 200 17q93 1 200 -17t190 -115q76 -90 97 -203q34 -66 38 -128t-8 -123q1 -10 1 -20q0 -53 -31 -98q-45 -157 -205 -209q-72 0 -82 -31q-31 -8 -27 -46q3 -39 27 -72
q13 -34 50 -68q31 -30 78 -91q16 -14 96 -69q53 -37 88 -84q5 -14 5 -28q0 -22 -12 -47q-19 -40 -65 -43zM441 828q44 -20 114 -18q65 2 111 18l130 12q53 5 95 29q66 12 91 21q56 20 68 56q10 31 10 90q0 25 -1 56q-7 101 32 140q34 16 63 16q58 0 96 -62q14 -19 14 -45
q0 -17 -6 -38q-11 -34 -11 -54q0 -10 3 -16q4 -1 9 -1q43 0 105 99q54 87 54 151q0 17 -4 32q-7 153 -128 241q-43 38 -103 41q-60 2 -148 -5q-74 -33 -161 -33q-19 0 -39 2q-102 -7 -194 -72q-33 -23 -99 -13q-20 3 -38 3q-39 0 -68 -15q-46 -18 -72 -90q-22 -60 -20 -121
t-8 -124q-9 -54 -9 -105q0 -18 1 -36q26 -119 113 -159z" />
    <glyph glyph-name="R" unicode="R" horiz-adv-x="2051" 
d="M223 126q-41 -10 -42 108q-3 180 51 654q25 225 27 328q2 77 24 230q59 416 159 725q51 158 99 172q12 2 24 2q50 0 90.5 -43t69.5 -43q8 0 16 2q54 2 134 42t147 40q61 -15 170 -19q87 -3 175 -5q263 -13 341 -58q30 -28 30 -56q0 -16 -9 -31q-1 -2 -62 -113
q-69 -171 -205 -241q-44 -33 -153 -92q-113 -56 -173 -95q-30 -20 -52 -58q-28 -28 -28 -55q0 -14 7 -27q142 -73 347 -93q179 -18 421 -71q85 -19 123 -77q-18 -72 -87 -112q-81 -31 -193 -35t-212 35q-197 13 -599 189q-49 21 -134 38q-52 10 -99 10q-22 0 -43 -2
q-88 -28 -123 -159q-40 -149 -49 -471q-9 -350 -38 -496q-27 -70 -56 -102q-21 -24 -64 -24q-15 0 -34 3zM664 1616q51 -39 101 -33q52 6 98 33q120 50 200 164q24 34 68 28q10 -2 18 -2q26 0 37 14q72 23 174 127q76 78 76 123q0 48 -115 80q-82 22 -166 34q-84 0 -158 -20
q-131 -5 -219 -135q-44 -66 -114 -249q-31 -43 -31 -92q0 -48 31 -72z" />
    <glyph glyph-name="S" unicode="S" horiz-adv-x="1571" 
d="M379 392q-8 -1 -17 -1q-77 0 -95 62q8 46 63.5 113.5t99.5 86.5q31 23 71 23t88 -23q102 -7 256 82q104 37 144 82q48 21 84.5 84t32.5 115q-27 30 -224 27q-197 -4 -293 -27q-35 0 -76 -4q-38 -4 -118 4q-302 29 -292 123q-12 84 124 198l239 201q45 54 154 114
q126 70 169 107q299 148 445 138q32 -7 46 -40q10 -32 21 -63q2 -37 -85 -52q-109 -19 -146 -55q-70 -48 -220 -128t-220 -128q-59 -7 -128 -113q-20 -13 -20 -34q0 -11 5 -25q16 -40 66 -43q132 15 255 15q69 0 135 -5q208 -15 363 -51q135 -32 164 -113q12 -20 12 -38
q0 -25 -21 -48q-36 -41 -78 -83q-40 -55 -128 -107q-30 -37 -111 -63.5t-114 -69.5q-165 -151 -477 -241q-53 -27 -120 -27q-27 0 -54 7z" />
    <glyph glyph-name="T" unicode="T" horiz-adv-x="1936" 
d="M718 -340q-73 23 -81 78q-5 29 -5 56q0 26 4 50q76 195 113 474q19 148 41 487l34 512q16 249 63 436q-19 10 -45 10q-21 0 -45 -6q-37 -10 -106 -43q-62 -29 -112 -38q-67 -12 -132 -46q-30 -12 -78 -12q-32 0 -71 6q-99 13 -133 52q-20 9 -20 38q0 25 17 67
q35 86 85 95q22 34 49 34q37 0 74 -34l82 4q38 6 72 37q47 42 104 31q10 -2 19 -2q48 0 87 47l153 46q33 18 64 88q36 82 59 107q31 10 52 10q36 0 47 -27q17 -45 60 -60q41 -6 81 -6q147 0 282 83h146q88 -4 136 -41q13 -18 13 -47q0 -38 -22 -94q-40 -100 -109 -100
q-28 -14 -59 -14q-22 0 -63.5 12.5t-64.5 12.5q-30 0 -59 -11q-129 -83 -327 -123q-73 -200 -109 -477q-17 -125 -44 -488q-29 -378 -50 -550q-36 -306 -99 -542q-4 -37 -35.5 -72t-67.5 -40z" />
    <glyph glyph-name="U" unicode="U" horiz-adv-x="1361" 
d="M414 545q-131 46 -205 164q-74 82 -82 240q2 13 2 35q0 43 -7 121l-25 256q-13 138 -20 270q-2 40 -2 74q0 78 11 125q15 34 81 50q23 6 45 6q41 0 79 -20q54 -35 54 -133q0 -99 -54 -225q-20 -101 -25 -182t30 -192q2 -62 26 -185q0 -43 46 -133q43 -43 61 -71
q30 -60 108 -82q41 -23 91 -23q49 0 108 23q73 11 132 63q54 49 58 136q7 168 109 309q68 94 68 181q0 38 -13 74q0 167 -41 240q-44 79 -44 119q0 22 8 45q-3 8 -3 17q0 60 54 70q22 4 41 4q70 0 103 -55q83 -24 83 -101q0 -8 -2 -17q8 -327 -122 -727q0 -26 -14 -78
q-15 -55 -17 -81q-23 -116 -99 -220q-85 -118 -188 -143q-47 -3 -93 -3q-77 0 -150 9q-116 13 -192 40z" />
    <glyph glyph-name="V" unicode="V" horiz-adv-x="1425" 
d="M826 411q-36 6 -57 33q-8 10 -35 59q-209 382 -461 994q-51 124 -51 174l-21 102q-8 37 -4 95q4 56 35 110q23 15 68 31q22 7 41 7t34 -7l72 -72q7 -29 7 -55t-7 -47q4 -36 4 -72q0 -25 -2 -50q-5 -60 18 -114q0 -39 36 -99t36 -106q0 -68 31 -112q18 -118 41 -185
q86 -246 235 -409q65 32 65 95q0 14 -3 28q44 74 44 161q0 21 -3 43q0 15 8 80q8 73 53 187q34 86 110 253q56 123 64 300q16 2 31 2q110 0 143 -84q0 -68 -64 -203q-69 -145 -79 -227q-53 -257 -205 -543q-20 -133 -92 -236q-14 -71 -92 -133z" />
    <glyph glyph-name="W" unicode="W" horiz-adv-x="1704" 
d="M1266 291l-39 12t-32 29q-18 0 -28 28q-6 14 -6 29t5 30q-10 31 -10 64q0 27 7 56q15 62 3 120q-7 41 -23 123q-3 12 -26 87q-69 149 -177 200q-17 25 -36 25q-13 0 -26 -10q-29 -5 -64 -61q-122 -139 -129 -364q-22 -119 -5 -180q21 -79 -18 -137q-21 -32 -44 -32
q-21 0 -43 27q-39 29 -39 123q-12 60 -12 132q0 32 2 66q8 106 -16 165q-16 39 -34 119q-17 74 -17 127q0 64 -13 110q-16 53 -23 115q-15 46 -17 101t1 109l-10 57q-6 30 -13 61q-22 49 -31 127q-4 30 -4 59q0 45 9 85q22 30 52 29t45 -39q34 -12 32 -111q-3 -100 -6 -160
q6 -110 49 -215q24 -106 24 -208q0 -32 -2 -64l30 -102q27 -74 54 -77q30 40 53 137.5t51 138.5q24 52 74 82q53 32 103 0q66 -18 128 -78q28 -27 98 -116q43 -54 49 -164q7 -105 25 -123q38 0 59 127l19 165q24 67 48 189q38 85 81 430q15 119 29 185q31 141 71 153
q78 -33 78 -210q8 -11 8 -29q0 -29 -20 -76q-33 -79 -66 -140q-87 -286 -113 -548q-20 -219 -71 -656q-18 -122 -74 -122z" />
    <glyph glyph-name="X" unicode="X" horiz-adv-x="1279" 
d="M419 351q-83 22 -107 71q-20 19 -23 100q-4 80 23 146q27 111 140.5 246t135.5 235q0 170 -64 320q-52 122 -172 279q-23 61 -68 171q-18 42 -18 74q0 52 46 78q134 -40 191 -116q31 -43 68 -165q38 -125 94 -205q30 -158 71 -147q40 11 52 269q50 78 73 278
q19 173 101 245q51 13 90 13q44 0 80 -21q45 -26 60 -69q27 -27 27 -76q0 -50 -27 -88q0 -106 -200 -282q-111 -127 -160 -279q-26 -78 -26 -141q0 -60 23 -107q-3 -14 -3 -27q0 -47 34 -89q42 -54 51 -119q0 -154 117 -277q39 -51 84 -137q23 -44 23 -72q0 -26 -20 -37
q-27 -49 -78 -49q-21 0 -45 8q-35 12 -135 309q-44 126 -62 171q-52 129 -89 145q-33 -30 -58 -154q-33 -159 -40 -179q0 -1 -10 -174q-6 -110 -46 -159q-32 -8 -59 -8q-42 0 -74 19z" />
    <glyph glyph-name="Y" unicode="Y" horiz-adv-x="1416" 
d="M539 395q-35 11 -63 54t-24 79l230 686q0 54 23 103q10 21 10 50q0 37 -17 87q-73 84 -161 220q-99 152 -126 236q1 20 1 38q0 33 -3 58q-6 39 48 78q12 5 24 5q52 0 114 -92q64 -9 124 -223q35 -126 37 -130q32 -95 64 -108q93 8 216 191q118 177 112 291l24 98
q15 61 53 71q57 -10 78 -26q24 -19 35 -72q10 -50 -3 -112q-15 -73 -79 -144q-64 -116 -157 -174q-106 -66 -125 -153q-27 -40 -27 -95q0 -19 6 -55.5t6 -56.5q0 -59 -26 -111q-3 -101 -64 -194l-113 -157q-61 -100 -64 -217q-30 -225 -153 -225z" />
    <glyph glyph-name="Z" unicode="Z" horiz-adv-x="1655" 
d="M383 765q-121 19 -164 131l6 127q8 72 44 115q96 113 253 139q105 17 172 36q87 24 159 61q85 8 134 77q26 37 26 66q0 24 -17 41q-66 27 -175 35l-180 14q-169 23 -304 60q-53 0 -130 37l-123 66q-24 40 -28 58q-4 17 26 50l126 31q210 -18 402 -57q229 -47 392 -89
q72 -19 119 -24q62 -8 118 -31q114 -47 165 -122q0 -46 3 -87q3 -42 -27 -85q-22 -51 -63 -66q-57 -20 -74 -36q-27 -25 -287 -108q-168 -54 -203 -66q-115 -40 -198 -79q-45 7 -61 -52q-4 -13 -4 -25q0 -41 44 -65q144 -48 335 -82q216 -39 339 -29q144 11 195 62
q60 -8 85 -25q1 -1 62 -59q21 -39 21 -58q0 -5 -1 -8q-7 -18 -45 -61q-47 -39 -91 -39q-12 0 -25 3q-250 8 -495 57q-130 25 -531 87z" />
    <glyph glyph-name="asciicircum" unicode="^" horiz-adv-x="878" 
d="M617 1140l-41 41q-3 23 -3 50q0 37 7 81q11 74 42 105q86 -20 92 -22q52 -19 67 -60q41 -19 41 -55q0 -12 -5 -27q-50 -107 -200 -113z" />
    <glyph glyph-name="underscore" unicode="_" horiz-adv-x="1552" 
d="M258 203q49 52 158 78l180 39q50 3 92 3q69 0 120 -8q74 -12 131 -5q65 8 176 -4q44 -5 76 -5q43 0 66 9q59 -7 100 -34l84 -63q18 -13 18 -33q0 -22 -20 -50q-33 -47 -94 -47q-13 0 -27 2q-66 -27 -173 -24h-206q-124 1 -205 14q-64 10 -127 0q-77 -12 -200 22
q-140 40 -149 106z" />
    <glyph glyph-name="a" unicode="a" horiz-adv-x="1404" 
d="M319 696q-41 19 -41 77q6 66 172 534l278 781q18 40 54 40q15 0 32 -7q137 -166 213 -340l148 -340q37 -3 74.5 -7t64.5 -30q-3 -23 -23.5 -66.5t-37.5 -56.5l61 -229q18 -120 18 -142q0 -38 -18 -59q-33 -25 -60 -25q-16 0 -30 9q-27 3 -52 46q-19 33 -26 68l-86 291
l-192 -16l-299 -29l-72 -261q-59 -210 -80 -226q-22 -24 -52 -24q-21 0 -46 12zM618 1396l373 33l-193 454z" />
    <glyph glyph-name="b" unicode="b" horiz-adv-x="1544" 
d="M170 494q-2 255 44 759q43 479 206 999q30 9 55 9q41 0 71 -23q48 -39 116 -36q33 -16 86 -16q74 0 186 30q148 39 257 39q32 0 61 -3q85 -22 127 -80q29 -41 29 -76q0 -15 -5 -29q0 -213 -73 -286q-47 -78 -105 -138q-47 -49 -125 -88l-147 -73l-115 -25q52 -17 104 -17
q33 0 66 7q81 18 129 6q197 -47 274 -123q56 -93 56 -194q0 -21 -2 -40q5 -212 -78 -352q-84 -104 -176 -131q-206 -60 -349 -84q-167 -28 -335 -43q-90 0 -222 -28q-40 -9 -69 -9q-66 0 -66 45zM596 1645v0q44 -20 152 -20q13 -2 27 -2q86 0 186 63q38 11 68 42
q50 53 55 57q119 126 119 245q-59 62 -226 70q-53 -2 -109 -37q-93 -58 -100 -61q-55 -34 -104 -93q-46 -55 -68 -133q-12 -24 -15 -54q-3 -31 15 -77zM699 707q121 -9 299 33q62 15 96.5 29l108.5 45q35 14 47 44q1 3 14 66q6 52 4 125q-2 70 -41 101l-86 70q-46 35 -98 40
l-471 41q-30 10 -52 10q-49 0 -69 -59.5t-27 -122.5l-32 -291q13 -46 69 -77q49 -27 103 -36q73 -13 135 -18z" />
    <glyph glyph-name="c" unicode="c" horiz-adv-x="1478" 
d="M540 1076l-57 29l-91 57q-59 98 -56 257q7 349 250 590q122 121 302 144q217 0 377 -73q8 -27 8 -47q0 -44 -53 -54q-10 -2 -89 -2q-36 0 -79 2q-155 6 -250 -24q-123 -38 -197 -146q-97 -141 -131 -340q-10 -60 7 -100q18 -46 42 -88q49 -50 98 -56q66 -9 111 -10
q103 -2 262 10q135 9 160 40q41 25 64 96q20 59 71 67q79 -2 86 -7l33 -50q-22 -95 -78 -151q-56 -91 -143 -119q-183 -59 -331 -60q-157 -2 -316 35z" />
    <glyph glyph-name="d" unicode="d" horiz-adv-x="1680" 
d="M262 874q-4 16 -4 31q0 16 8 40q11 32 13 39l40 123q48 95 98 269q56 193 50 276q2 33 2 66q0 84 -11 174q-3 27 -3 50q0 79 41 87q19 4 36 4q55 0 93 -44.5t57 -44.5q7 0 14 3q167 -13 500 -57q75 -14 128 -45q3 -2 110 -78q35 -35 94 -115q38 -71 45 -115
q26 -66 17 -115q-10 -54 -25 -106q-26 -64 -86 -127q-40 -42 -111 -78l-73 -39q-43 -21 -78 -26q-36 -18 -198 -53.5t-196 -32.5q-111 -19 -331 -62q-22 7 -40 7q-23 0 -38 -11l-29 -16q-12 -9 -25 -34q-8 -15 -20 -15q-9 0 -21 8q-12 -5 -23 -5q-38 0 -38 29q0 6 4 13z
M602 1075l189 36l192 33l160 33q25 4 74 13q35 7 81 32q61 4 148 107q33 56 33 115q0 38 -13 77q-30 86 -114 142q-76 49 -176 55l-517 32v-41q0 -84 -73 -327l-56 -177q-23 -72 -71 -155z" />
    <glyph glyph-name="e" unicode="e" horiz-adv-x="1382" 
d="M347 1092q-32 41 -32 103q0 22 4 45q14 89 65 258q-5 41 -16 123q9 35 43 69.5t43 69.5q20 80 64 192q57 146 91 160q71 22 168 25l234 8l94 -16q62 -26 62 -62q-10 -45 -66 -45l-111 -20l-172 -29q-74 0 -94 -49q-53 -76 -53 -172q21 -28 66 -25q61 3 94 8q45 7 178 32
q85 16 182 14q50 -1 60 -2q38 -5 51 -23q8 -17 8 -31q0 -38 -33 -51q-32 -17 -65 -17q-18 0 -37 5l-161 -21q-35 -4 -118 -20q-69 -18 -209 -45q-23 0 -39.5 -11l-33.5 -22q-20 -25 -30 -51q-16 -44 -20 -51l-24 -136q33 -52 74 -45q28 3 90 13l159 32l113 25l117 25
q49 11 83 -7q39 -21 19 -71q-24 -34 -69 -45q-53 -31 -99 -42l-90 -24l-109 -36q-15 -4 -96 -17l-209 -33q-44 -11 -81 -11q-54 0 -95 23z" />
    <glyph glyph-name="f" unicode="f" horiz-adv-x="1422" 
d="M293 279q-3 2 -34 11q-14 4 -19 34q-8 7 -8 66q0 24 2 57q9 237 53 600q21 173 43 304q-25 30 -25 64v84q7 43 35 98l47 94l100 270q84 214 121 214q15 11 33 11q11 0 23 -4q32 -11 38 -20q158 50 316 45q40 10 80 10q61 0 157 -26q28 3 40.5 -5.5t9.5 -27.5
q5 -25 -37 -49q-39 -12 -100 -15q-93 -4 -101 -5q-65 4 -164 -21q-79 -7 -127 -41q-50 -17 -57 -74l-111 -229l-24 -110q88 -38 201 -38q145 -1 241 17q67 5 122 23q47 15 107 15q18 0 37 -1q45 -14 54 -53q2 -7 2 -13q0 -40 -64 -40l-82 -21q-124 -32 -274 -57
q-69 -4 -193 -29l-78 -17q-79 -17 -143 -57q-55 -13 -98 -512l-24 -279q-24 -233 -50 -249z" />
    <glyph glyph-name="g" unicode="g" horiz-adv-x="1471" 
d="M351 1066q-44 8 -79.5 47t-70.5 83q-12 51 -16 86q-5 35 4 114q39 337 142 475q159 213 333 308q94 36 197 49q28 3 54 3q68 0 118 -24q12 -9 77 -12q57 -4 57 -39q0 -5 -1 -10l-4 -45q-35 -12 -82 -12q-36 0 -105 12t-105 12q-56 0 -104 -16q-97 14 -286 -255
q-76 -108 -125 -218q-35 -78 -35 -129q0 -21 6 -37l-7 -66l7 -69l28 -82l79 -49l235 -29l274 33l126 65l98 53l55 74l-4 107l-141 12q-10 5 -47 37q4 17 20 45q106 -9 317 -45q31 -153 31 -293q0 -99 -19 -191q-33 -6 -56 -6q-60 0 -55 40q1 13 1 26q0 41 -15 76
q-127 -94 -311 -131q-138 -28 -290 -22q-102 4 -301 23z" />
    <glyph glyph-name="h" unicode="h" horiz-adv-x="1356" 
d="M227 985q-19 30 -19 63q0 40 19 101q141 444 192 835l9 83q6 36 53 48q102 -5 102 -47q0 -8 -4 -18q-9 -99 -29 -229q-13 -81 -13 -123q0 -26 5 -37q41 -43 139 -37q170 10 328 90q33 13 49 45l62 385q9 54 14 65q13 25 55 33q15 1 28 1q69 0 69 -45q0 -9 -3 -17
q-9 -112 -17 -225q-14 -153 -32 -214l-28 -208l-42 -293q-23 -173 -44 -191q-41 -34 -97 -34t-92 34q-11 2 -11 24t11 63q20 84 29 143q0 51 24 142q36 137 37 144l-65 -53l-99 -29q-51 -15 -92 -15q-30 0 -92 -1q-57 -2 -111 8q-17 2 -30 2q-38 0 -51 -22
q-23 -170 -36 -251q-32 -187 -59 -233q-33 -20 -68 -20q-44 0 -91 33z" />
    <glyph glyph-name="i" unicode="i" horiz-adv-x="834" 
d="M430 1069q-18 34 -15 93q4 70 15 104q81 246 121 426q43 194 72 405q12 87 61 131q53 -6 69 -13q33 -15 30 -56q5 -28 5 -62q0 -52 -11 -117l-40 -219q-24 -68 -53 -241q-3 -19 -25 -256q-18 -193 -36 -228q-25 -27 -68 -27q-15 0 -33 4q-69 13 -92 56z" />
    <glyph glyph-name="j" unicode="j" horiz-adv-x="1755" 
d="M634 166q-33 -9 -65 -9q-35 0 -156 33q-127 35 -201 127l-53 103q-24 78 -26 111q-2 70 -3 139q8 52 15 103q17 52 75 61q97 16 115 -50q12 -10 13 -32q1 -33 3 -41q0 -90 33 -197q14 -67 66 -94q65 -34 127 -46q39 -7 135 -12q99 -5 184 17q36 3 65 17q22 10 62 44
q58 40 82 148q48 113 71 218q20 73 56 236l176 1000l34 98q22 54 64 78q48 44 91 44q68 0 73 -69q2 -40 -16 -82q-14 -72 -77 -182q-57 -99 -67 -182q-28 -76 -22 -191q4 -93 -23 -182q-86 -588 -176 -917q-9 -62 -15 -100q-4 -27 -67 -117q-10 -17 -30 -43q-15 -12 -39 -27
q-31 -3 -55 -17q-10 -6 -23 -6q-16 0 -37 11q-43 6 -147 16q-37 4 -79 4q-74 0 -163 -12z" />
    <glyph glyph-name="k" unicode="k" horiz-adv-x="1708" 
d="M275 613q-6 -2 -13 -2q-26 0 -73 27q-34 14 -41 78q9 70 9 118q-1 38 24 173q23 125 64 269q18 65 58 165q70 175 71 176l61 160q8 8 66 98q42 76 131 225q2 12 2 22q0 14 -6.5 33t-6.5 29q0 19 11 43q0 77 61 94q27 14 58 14q20 0 43 -6q54 -17 63 -69q13 -12 13 -34
q0 -23 -14 -56q-28 -66 -73 -146l-92 -164q-47 -84 -59 -145q0 -71 -43 -156q-21 -40 -21 -65q0 -30 27 -41q16 -11 46 -11q20 0 48 5q143 28 249 101q49 33 42 57q112 124 262 172q52 9 98 6q45 -3 95 -39q29 -6 29 -20q0 -17 -40 -44q-32 -21 -396 -218q-77 -42 -77 -62
q0 -5 4 -8q4 -21 257 -68l321 -59q57 -14 94 -66q0 -67 -69 -94q-58 -22 -140 -22q-81 0 -176 22q-81 0 -278 65q-170 56 -332 127q-9 -2 -18 -2q-11 0 -29.5 5.5t-29.5 5.5q-22 0 -54 -9q-12 -48 -58 -114.5t-57 -122.5q-6 -49 -29 -152q-17 -31 -17 -70q0 -12 2.5 -34.5
t2.5 -33.5q0 -36 -12 -67q-7 -58 -58 -90z" />
    <glyph glyph-name="l" unicode="l" horiz-adv-x="1627" 
d="M352 583q-4 3 -73 10q-59 6 -87 47q-29 15 -32 61q-10 19 -6 108q4 87 38 183q6 80 64 180q43 76 43 134q0 18 -4 34q12 89 34 153q25 73 68 159q21 49 64 129q33 46 55 80q2 45 69 98q63 51 58 127q-17 28 -17 70q0 30 17 61q0 67 69 98q23 4 44 4q90 0 116 -73
q16 -15 16 -42q0 -23 -11 -53q-24 -68 -66 -148l-83 -159q-42 -79 -48 -131q3 -52 -40 -125q-18 -29 -71 -137q-75 -152 -84 -270q-11 -130 -35 -250q-12 -31 -28 -98q119 -22 221 -33q40 -13 84 -13q31 0 90.5 11.5t90.5 11.5q44 0 87 -10q33 -24 88 -24q37 0 86 11
q77 18 157 18q43 0 87 -5q117 -32 131 -99q10 -45 -21 -82.5t-77 -48.5q-204 -15 -486 -18q-283 -3 -608 31z" />
    <glyph glyph-name="m" unicode="m" horiz-adv-x="1896" 
d="M157 639q-16 16 -37 50q-40 48 -40 95q0 26 12 52l61 299l168 496q22 54 61 163q20 36 66 99q37 73 102 221q9 43 29 131q-7 67 61 98q24 19 47 19q36 0 68 -50l78 -128q73 -62 73 -108q0 -11 -3 -23q7 -16 7 -41q0 -27 -8 -65l-85 -318q-20 -75 -13 -121q4 -24 20 -24
q22 0 68 43q110 101 376 423q95 114 134 139q44 63 71 84q36 29 101 43q80 -3 113 -16q47 -19 80 -78q26 10 26 -82q0 -45 -6 -114q-40 -446 -163 -972q-54 -231 -82 -253q-18 -18 -54 -18q-13 0 -28 2q-57 9 -78 53l107 594q30 164 49 254q42 201 65 237q3 10 3 18
q0 32 -43 47q-56 19 -83 38q-125 -73 -407 -408q-253 -301 -302 -297q-15 -6 -38 -6t-53 6q-62 12 -68 61q-28 19 -28 75q0 45 19 114q40 155 37 389q-21 -98 -155 -448q-106 -276 -103 -453q6 -8 6 -20q0 -11 -5 -25q-11 -29 -17 -62q0 -37 6 -89q5 -53 -22 -62
q-10 -53 -78 -69q-28 -7 -53 -7q-35 0 -62 14z" />
    <glyph glyph-name="n" unicode="n" horiz-adv-x="1681" 
d="M151 838q-13 1 -14 85q-4 183 23 418q6 58 69 346q26 118 82 142q12 2 24 2q59 0 109 -37q59 -45 96 -88q41 -16 211 -233l96 -122q78 -92 107 -99q154 -39 159 168q7 36 39 108l66 150q44 101 53 124q35 85 39 126q4 37 52 108q45 66 42 117q-6 18 -6 40t6 48
q12 52 37 80q20 4 38 4q74 0 89 -74q13 -13 13 -39q0 -40 -31 -110q-52 -116 -76 -211q-54 -152 -201 -471q-19 -28 -30 -106l-22 -162q-12 -85 -20 -120q-22 -95 -51 -96q-13 -5 -29 -5q-48 0 -122 51q-155 107 -399 339q-90 85 -125 99q-46 0 -95 -70q-9 -20 -29 -119
q-17 -81 -40 -102q-29 -15 -29 -60q0 -31 15 -78q22 -72 22 -114q0 -25 -8 -39q-10 -40 -71 -49q-9 -2 -17 -2q-49 0 -72 51z" />
    <glyph glyph-name="o" unicode="o" horiz-adv-x="1437" 
d="M234 1391q-76 37 -110 143q-23 71 16 181q48 203 71 263q54 141 154 220q48 16 90 16q19 -4 40 -4q45 0 96 21q36 3 96 26q72 29 96 35q74 18 155 20q81 1 165 -20q61 -15 139.5 -103t89.5 -151q32 -70 32 -125q0 -23 -7 -43q6 -56 -25 -127q3 -45 -34 -97
q-33 -47 -77 -71q-16 -25 -59 -37l-72 -16q-25 -7 -73 -16q-24 -5 -62 -5q-21 0 -45 1q1 -5 -52 -8q-70 -4 -75 -5q-26 -13 -78 -18q-57 -5 -82 -14q-51 -41 -118 -54q-25 -24 -119 -24q-19 -6 -70 -12q-9 -2 -18 -2q-39 0 -64 26zM394 1563q33 -13 71 -13q52 0 109 25
q98 42 156 37q62 -6 143 33q61 21 110 21q24 0 46 -5q85 10 145 68q64 62 60 145q2 11 2 25q0 46 -31 74q-40 73 -85 137q-35 48 -106 48q-24 0 -51 -5q-8 -1 -131 -29q-30 -11 -73 -16q-72 -8 -74 -8q-61 -1 -184 -13q-42 -7 -52 -31t-34 -42q-36 -49 -103 -152
q-29 -49 -35 -98l-6 -103q7 -39 45.5 -70t77.5 -28z" />
    <glyph glyph-name="p" unicode="p" horiz-adv-x="1529" 
d="M113 336q-36 37 -36 70q-1 9 -1 23q0 54 16 182q19 160 45 339l47 330q21 150 20 175q-22 33 -43 59q-13 15 -13 32q0 13 6 27q0 41 25 52q38 17 53 43q37 63 79 364q15 116 27 164q27 115 70 139q14 4 25 4q25 0 40 -18q22 -26 50 -47q36 -9 80 -7q44 1 84 31
q63 30 205 41q118 9 100 10q26 -6 80 -16q28 -6 115 -6q145 -37 245 -229q7 -27 25 -176v-48q0 -22 -12 -59q-26 -79 -51 -116q-28 -42 -88 -88t-140 -46q-63 -19 -123 -19q-25 0 -49 3q-54 -12 -75 -12q-18 0 -40 4q-27 -14 -76 -17l-79 -4q-43 -13 -135 -20
q-81 -15 -102 -21q-51 -14 -95 -41q-39 1 -104 -538l-47 -375q-22 -173 -42 -180q-21 -15 -49 -15q-17 0 -37 6zM445 1635q17 -21 53 -21q29 0 70 13q71 22 115 22q13 0 24 -2q61 12 103 22q25 5 55 5q18 0 39 -2q23 -5 43 -5q25 0 62 15t65 15q11 0 22 -1q129 7 189 86
q47 91 47 148q0 13 -2 24q3 21 3 44q0 21 -2 44q-6 48 -42 64q-82 22 -221 70l-107 16l-147 -25q-37 -12 -111 -28q-18 4 -36 4q-61 0 -119 -53l-44 -55q-20 -24 -38 -60q-37 -134 -37 -213q0 -14 -3.5 -40.5t-3.5 -39.5q0 -27 23 -47z" />
    <glyph glyph-name="q" unicode="q" horiz-adv-x="1359" 
d="M1212 1160q-49 12 -110 86q-37 21 -98 90q-54 41 -54 65q-20 23 -46 95q-21 62 -44 73q-11 8 -26 8q-19 0 -43 -12q-46 -24 -74 -41q-18 -9 -40 -24q-7 -10 -71 -13q-43 -37 -160 -37q-31 -8 -81 -9q-74 -2 -82 -3q-152 -13 -226 98q-18 39 -18 96q0 56 18 130
q0 146 41 272q53 163 156 211q8 -1 19 -1q17 0 40 3q39 4 68 -2q77 -16 135 12l88 48q50 26 96 34q69 12 160 14q235 4 318 -113q63 -91 71 -155q33 -72 33 -135q0 -33 -8 -65q6 -51 -25 -95q-35 -125 -164 -168q-57 0 -65 -24q-25 -6 -22 -36q3 -32 22 -58q10 -26 40 -55
q25 -24 62 -72q12 -10 77 -56q43 -31 71 -67q3 -10 3 -21q0 -19 -9 -38q-15 -32 -52 -35zM340 1598q35 -16 91 -14q52 1 89 14l104 10q42 4 76 23q113 20 127 61q8 24 7 121q-2 80 26 108q28 13 52 13q46 0 75 -49q11 -15 11 -36q0 -14 -5 -30q-8 -28 -8 -44q0 -8 2 -13
q3 -1 8 -1q34 0 83 79q43 69 43 120q0 14 -3 27q-6 124 -102 192q-34 30 -82 33q-49 2 -119 -4q-61 -26 -127 -26q-16 0 -33 2q-81 -7 -155 -58q-26 -18 -79 -10q-16 2 -30 2q-32 0 -55 -12q-36 -15 -58 -73q-18 -49 -16 -95q-8 -70 -12 -213q19 -95 90 -127z" />
    <glyph glyph-name="r" unicode="r" horiz-adv-x="1582" 
d="M123 563q-33 -8 -34 86q-2 150 40 524q17 152 22 262q-6 114 72 481q28 134 56 227q54 181 98 193q10 2 19 2q40 0 72 -34.5t55 -34.5q6 0 13 2q42 2 109 34q63 31 117 31q55 -12 286 -18q191 -5 263 -47q37 -35 16 -70l-4 -7l-45 -83q-56 -138 -164 -193
q-35 -26 -123 -73q-47 -24 -138 -77q-24 -16 -42 -46q-22 -22 -22 -44q0 -11 5 -22q114 -59 278 -75q144 -15 337 -56q69 -15 98 -61q-14 -58 -70 -90q-65 -25 -154 -28q-90 -3 -169 28q-87 6 -225 53q-114 38 -254 98q-37 16 -108 31q-42 8 -79 8q-18 0 -35 -2
q-69 -21 -98 -127q-32 -119 -39 -377q-8 -282 -30 -397q-40 -101 -95 -101q-13 0 -28 3zM475 1755q35 -27 75 -27t85 27q95 39 159 131q19 27 54 22q8 -1 15 -1q20 0 30 11q58 18 139 101q60 62 60 99q0 39 -91 64q-66 18 -133 27q-67 0 -127 -16q-105 -3 -175 -108
q-36 -53 -91 -199q-25 -34 -25 -73t25 -58z" />
    <glyph glyph-name="s" unicode="s" horiz-adv-x="1274" 
d="M320 1129q-73 -9 -90 49q7 37 51.5 91t79.5 69q25 18 57 18t70 -18q83 -5 205 65q48 22 115 66q38 17 68 68t26 92q-22 24 -180 21t-234 -21q-28 0 -61 -3q-32 -4 -95 3q-105 11 -141 21q-97 25 -92 77q-9 67 99 158l192 161q36 44 123 92q102 56 135 84q236 120 356 111
q25 -5 35 -31t18 -51q2 -30 -67 -42q-87 -14 -117 -44q-54 -37 -174 -100q-116 -62 -178 -105q-46 -5 -103 -90q-16 -10 -16 -27q0 -9 5 -20q12 -32 52 -35q107 12 205 12q209 0 397 -44q109 -25 132 -91q9 -16 9 -30q0 -21 -17 -39q-29 -33 -62 -66q-35 -47 -102 -86
q-24 -29 -89.5 -50.5t-91.5 -55.5q-139 -127 -381 -193q-48 -22 -93 -22q-24 0 -46 6z" />
    <glyph glyph-name="t" unicode="t" horiz-adv-x="1506" 
d="M535 248q-59 18 -65 63q-4 23 -4 45q0 20 3 39q61 158 90 379q16 119 34 391l27 410q13 199 50 348q-16 8 -36 8q-48 0 -124 -41q-30 -16 -95.5 -32.5t-96.5 -32.5q-25 -10 -63 -10q-26 0 -57 5q-79 10 -106 41q-16 8 -16 30q0 21 14 55q28 69 68 75q17 27 40 27
q31 0 58 -27q33 2 64.5 5.5t58.5 27.5q38 33 84 24q7 -1 15 -1q38 0 69 38l61 19l62 18q26 14 50 70q29 65 48 86q24 8 41 8q28 0 38 -22q14 -36 48 -48q32 -5 64 -5q117 0 227 67h117q70 -4 108 -33q10 -15 10 -38q0 -30 -17 -75q-32 -79 -87 -79q-23 -12 -48 -12
q-18 0 -50.5 10.5t-51.5 10.5q-24 0 -47 -9q-102 -67 -262 -99q-96 -265 -131 -797q-39 -584 -110 -849q-3 -30 -28 -58t-54 -32z" />
    <glyph glyph-name="u" unicode="u" horiz-adv-x="1144" 
d="M375 1200q-103 36 -164 131q-58 64 -66 193q1 9 1 24q0 35 -6 100q-14 140 -34 421q-2 31 -2 58q0 63 9 101q12 27 65 40q18 5 36 5q32 0 62 -16q43 -28 43 -107t-43 -180q-15 -81 -19 -145q-4 -65 24 -154q2 -50 20 -147q0 -35 37 -107q39 -42 49 -57q22 -48 86 -66
q33 -18 73 -18t87 18q58 9 105 51q43 38 46 109q6 134 87 246q54 75 54 145q0 30 -10 59q0 135 -32 193q-35 63 -35 96q0 17 6 35q-4 13 -4 23q0 35 45 47q16 3 30 3q55 0 85 -44q67 -24 67 -74q0 -10 -2 -21q6 -262 -98 -581q0 -22 -11 -63q-12 -45 -14 -64
q-17 -93 -78 -177q-68 -94 -151 -114q-207 -13 -348 37z" />
    <glyph glyph-name="v" unicode="v" horiz-adv-x="1082" 
d="M605 1030q-39 8 -74 74q-119 223 -188 376q-94 207 -181 419q-41 99 -41 139q-5 27 -16 82q-6 28 -3 75q3 45 27 89q18 12 54 24q18 6 33 6t28 -6l57 -57q6 -23 6 -44t-6 -38q4 -29 4 -59q0 -19 -2 -38q-4 -49 15 -91q0 -32 28.5 -80t28.5 -84q0 -55 25 -90
q8 -50 33 -148q70 -198 188 -327q51 25 51 76q0 10 -2 22q35 58 35 128q0 18 -2 36q0 87 49 213l91 213q43 110 48 229q13 1 24 1q87 0 116 -66q0 -55 -52 -163q-55 -115 -63 -182q-41 -200 -164 -434q-15 -106 -74 -188q-12 -58 -73 -107z" />
    <glyph glyph-name="w" unicode="w" horiz-adv-x="1327" 
d="M937 900l-35.5 10t-30.5 23q-30 0 -30 47q0 11 4 23q-9 24 -9 50q0 22 7 46q12 47 2 96q-7 39 -21 99l-24 69q-61 118 -162 160q-15 19 -33 19q-11 0 -24 -7q-29 -5 -59 -49q-41 -34 -81 -118q-35 -72 -37 -173q-14 -45 -14 -85q0 -31 9 -59q19 -64 -16 -110
q-19 -25 -40 -25q-19 0 -40 21q-36 23 -36 98q-10 50 -10 108q0 25 2 52q6 85 -15 131q-16 35 -32 94.5t-16 102.5q0 36 -13 91q-16 66 -19 89q-14 36 -16 81q-2 44 1 87l-21 94q-20 40 -28 103q-4 24 -4 47q0 36 8 67q20 24 48 23t41 -31q31 -9 29 -88q-5 -139 -5 -129
q1 -81 45 -172q22 -83 22 -166q0 -25 -2 -51l29 -82q24 -58 48 -61q27 31 48.5 110t46.5 111q23 42 68 65q49 25 95 0q84 -19 207 -155q40 -44 45 -132q6 -84 23 -98q35 0 53 100l18 134q19 46 45 151q38 76 74 344q13 94 27 150q27 111 65 121q71 -27 71 -168q7 -9 7 -23
q0 -23 -18 -62q-30 -63 -60 -112q-80 -221 -104 -438l-29 -260q-15 -134 -36 -264q-16 -99 -68 -99z" />
    <glyph glyph-name="x" unicode="x" horiz-adv-x="981" 
d="M264 799q-68 19 -86 57q-15 15 -18 80q-3 64 18 117q21 89 112.5 197t108.5 188q0 231 -188 479l-55 136q-14 34 -14 59q0 42 36 63q107 -32 152 -93q25 -34 55 -131q31 -101 76 -165q24 -126 57 -117q32 9 41 215q40 62 58 222q15 138 81 196q39 11 71 11q82 0 114 -72
q26 -28 26 -61q0 -34 -26 -71q0 -84 -160 -225q-90 -102 -129 -223q-20 -63 -20 -113q0 -49 18 -86q-2 -10 -2 -20q0 -38 27 -73q34 -44 40 -95q0 -122 95 -221q30 -41 66 -110q19 -36 19 -58q0 -20 -16 -29q-21 -40 -62 -40q-16 0 -36 7q-29 10 -109 247q-33 98 -49 137
q-42 103 -71 116q-27 -24 -47 -123q-25 -128 -31 -143q-1 -5 -9 -139q-5 -88 -36 -127q-26 -7 -49 -7q-33 0 -58 15z" />
    <glyph glyph-name="y" unicode="y" horiz-adv-x="886" 
d="M196 863q-28 9 -50.5 43t-19.5 63l184 549q0 43 19 82q8 17 8 40q0 30 -14 71q-56 62 -129 175q-79 122 -101 189q1 18 1 34q0 25 -2 44q-5 31 38 62q9 4 19 4q41 0 92 -74q50 -7 99 -178l29 -105q26 -76 52 -86q80 6 176 156q92 144 86 229l19 79q12 49 42 56
q78 -12 91 -77q21 -108 -66 -205q-53 -95 -125 -139q-85 -53 -100 -123q-21 -32 -21 -77q0 -15 4 -44t4 -44q0 -47 -20 -89q-3 -94 -96.5 -217t-96.5 -238q-23 -180 -122 -180z" />
    <glyph glyph-name="z" unicode="z" horiz-adv-x="1340" 
d="M323 1430q-96 14 -132 105l4 102q7 58 36 92q76 89 203 111q46 8 138 28q69 19 127 49q68 6 107 62q21 30 21 53q0 19 -14 32q-53 22 -140 28q-72 6 -144 11q-141 19 -243 49q-43 0 -105 30l-98 52q-19 32 -22 46t21 40l100 25q271 -23 636 -117q65 -10 190 -44
q90 -37 132 -97q0 -37 2 -70t-22 -68q-17 -40 -50 -52q-45 -16 -59 -30q-19 -19 -250 -96q-257 -86 -300 -106q-37 6 -50 -41q-3 -11 -3 -21q0 -33 35 -52q118 -38 268 -65q174 -31 272 -23q115 10 156 49q48 -7 67 -20l50 -47q17 -31 17 -46q0 -13 -37 -55q-37 -32 -74 -32
q-9 0 -19 2q-200 6 -396 46q-130 26 -424 70z" />
    <glyph glyph-name="sterling" unicode="&#xa3;" horiz-adv-x="1010" 
d="M711 1153q-27 23 -58 70q-22 34 -22 65q0 12 3 24q8 76 77 123q84 -5 194 -87q45 -18 45 -55q0 -10 -4 -22q-102 -102 -235 -118z" />
    <glyph glyph-name="glyph83" 
 />
  </font>
</defs>
</svg>
